<svg version="1.1"
      xmlns="http://www.w3.org/2000/svg"
      xmlns:xlink="http://www.w3.org/1999/xlink"  id="snapshot-81602" width="250" height="250" viewBox="0 0 250 250"><desc>This image was made on Patterninja.com</desc><defs>
<!-- image 99071 -->
<g id="transformed-99071" data-image="99071" transform="translate(-125, -125) rotate(0, 125, 125)"><g><svg version="1.1" width="250px" height="250px" viewBox="0 0 250 250"><g id="original-99071"><svg xmlns="http://www.w3.org/2000/svg" viewBox="0 0 400 400" xmlns:xlink="http://www.w3.org/1999/xlink" version="1.1" preserveAspectRatio="xMidYMid meet">
  <path d="M258.9 119.7c-7.9-16.3-23-29-41.5-34.7-34.3-10.6-70.9 8.6-81.6 43-.3.8-1.7 5-2.2 8-.7 4.2-1.2 13.7-.1 20.8v.2l.8 4.1c1.6 11.8 12.4 20.2 24.3 18.8 11.9-1.5 20.4-12.4 18.9-24.3l-.4-3c0-.2-.1-.5-.1-.7-1.1-4.1 0-8.9 0-8.9 1.5-5.9 5.2-10.8 10.4-13.9 4.9-2.9 10.5-3.8 16-2.7.2.1.4.2.6.2.4.1.8.2 1.1.2 6 1.7 11.3 6.1 14.3 11.8 2.7 5.1 3.3 10.5 1.6 15.2-5 14.1-49.3 124.6-55.2 139.3-.5.7-.9 1.6-.9 2.5-3.6 10.5 1.7 22.1 12.2 26.2 2.5 1 5.1 1.4 7.6 1.4 8.4 0 16.3-5 19.5-13.3l56-143c6.4-15.9 5.9-32.2-1.3-47.2zm-55.1 164.2l-25.5 5.3c1.4-3.4 3-7.6 5-12.4.2 0 .5 0 .7-.1l24.6-5.2-4.8 12.4zm9.1-23.4l-25.3 5.3c1.9-4.6 3.8-9.6 5.9-14.7l25.2-5.3-5.8 14.7zm10.1-25.8l-25.1 5.3c1.8-4.5 3.6-9.1 5.5-13.7l25-5.2-5.4 13.6zm9.8-24.8l-24.9 5.2c1.9-4.8 3.8-9.6 5.6-14.2.3 0 .5 0 .8-.1l24-5-5.5 14.1zm-21.3-91.4l6.3-22.7c6.8 2.6 13.1 6.2 18.3 10.8l-17 16.5c-2.2-1.9-4.8-3.5-7.6-4.6zm31.1 66.2l-24.8 5.2c2.2-5.7 4.3-10.9 6.1-15.5l24.8-5.2-6.1 15.5zm8.7-26.3l-23 4.8c1-2.7 1.8-4.8 2.3-6 .9-2.6 1.4-5.3 1.5-8.1l22.4-8.4c.5 5.8-.1 11.7-1.8 17.6-.5 0-.9 0-1.4.1zm1.2-27.7l-22 8.3c-.6-1.7-1.3-3.4-2.2-5.1-.7-1.3-1.4-2.4-2.2-3.6l17.1-16.6c2.6 3.2 4.9 6.7 6.6 10.4 1.1 2.2 2 4.4 2.7 6.6zm-107.2.3c1.9-6.3 4.9-11.9 8.7-16.9l16.7 18.2c-1.5 2.5-2.6 5.3-3.3 8.2-.1.2-.2 1-.4 2.2l-21.9-10.9c.1-.3.2-.5.2-.7v-.1zm12.1 39c-6.5.8-12.4-3.8-13.2-10.2 0-.1 0-.2-.1-.3l-.8-4.1c-.6-4.1-.6-9.3-.3-13.3l24.3 12.1.3 2.7c.8 6.4-3.8 12.3-10.2 13.1zm19.7-45.5l-16.3-17.7c5.6-5.1 12.1-9 19.2-11.5l4.6 24.1c-.7.4-1.4.7-2.1 1.1-2 1.2-3.8 2.5-5.4 4zm17-8.2l-4.5-23.5c6.1-1 12.3-.9 18.6.3l-6.4 23c-1-.1-1.9-.1-2.9-.1-1.6 0-3.2.1-4.8.3zm-13.3 196.3c-5-2-7.7-7.2-6.8-12.2l25.4-5.3-4.4 11.4c-2.3 5.5-8.6 8.3-14.2 6.1z" fill="rgba(54, 54, 54, 1)" stroke="none"/>
</svg>
</g></svg></g></g>
<!-- /image 99071 -->

<!-- image 38407 -->
<g id="transformed-38407" data-image="38407" transform="translate(-3.010000000000005, -27) rotate(0, 125, 125)"><g><svg version="1.1" width="250px" height="250px" viewBox="0 0 250 250"><g id="original-38407"><svg xmlns="http://www.w3.org/2000/svg" viewBox="0 0 400 400" xmlns:xlink="http://www.w3.org/1999/xlink" version="1.1" preserveAspectRatio="xMidYMid meet">
  <path d="M286 243.5c-2.7.4-4.7 2.9-4.3 5.6.4 3.2.6 6.5.6 9.7 0 41.2-33.5 74.7-74.7 74.7s-74.7-33.5-74.7-74.7c0-16.1 5.6-30.7 17.1-44.5 1 .7 2 1.3 3.1 2 3.1 1.8 7.3 3.4 12.2 4.7l-14.9 42c-.5 1.4-.3 3 .5 4.3.8 1.3 2.2 2.1 3.7 2.3l2.9.3-2.5 9.1c-.8 2.7.8 5.4 3.4 6.2.5.1.9.2 1.4.2 2.2 0 4.2-1.4 4.8-3.6l3.1-10.8 4.2.5-2.2 9.9c-.6 2.7 1.1 5.4 3.8 6 .4.1.7.1 1.1.1 2.3 0 4.4-1.6 4.9-3.9l2.4-11 4.7.5-2.3 10.3c-.6 2.7 1.1 5.4 3.8 6 .4.1.7.1 1.1.1 2.3 0 4.4-1.6 4.9-3.9l2.5-11.4 3.7.4h.5c2.4 0 4.4-1.7 4.9-4l9.3-46c14.2-.8 27.5-3.2 36.7-7 5.4-2.3 9.3-5 11.6-8.2 3.6 4.1 6.8 8.5 9.4 13.2.9 1.6 2.6 2.6 4.4 2.6.8 0 1.7-.2 2.4-.6 2.4-1.3 3.3-4.4 1.9-6.8-3.7-6.7-8.4-12.9-13.8-18.4-.3-.3-.6-.5-.9-.7.8-6.4-.2-11.4-2.9-14.9-2.2-2.9-5.2-4.3-7.6-4.8.5-.9 1-1.7 1.5-2.6 1.3-2.4.4-5.5-2-6.8-2.4-1.3-5.5-.4-6.8 2-2.5 4.6-5.7 8.7-9.6 12.2-.6.5-1 1.1-1.2 1.8-32.7 12.4-50.2 7.3-61.6-.3-.3-.5-.6-1.1-1.1-1.5-9.8-9-15.4-21.7-15.4-34.9 0-15.1 7.3-29.4 19.6-38.3.2-.1.4-.3.5-.5l40.6-6.6c.7.2 1.5.4 2.2.7 17.3 6 29.7 21.7 31.5 39.9.3 2.6 2.4 4.5 5 4.5h.5c2.7-.3 4.7-2.7 4.5-5.5-1.8-17.7-11.8-33.4-26.6-42.7 1.6-1 2.6-3 2.3-5-.4-2.7-3-4.6-5.7-4.1l-8.3 1.3-3.6-22c-.7-4.5-3.2-8.4-6.8-11.1-3.7-2.7-8.2-3.7-12.7-3l-27.4 4.4c-4.5.7-8.4 3.2-11.1 6.8-2.7 3.7-3.7 8.2-3 12.7l3.6 22-6.4 1c-2.7.4-4.6 3-4.1 5.7.4 2.5 2.5 4.2 4.9 4.2.3 0 .5 0 .8-.1l2.5-.4c-8.1 10.1-12.8 22.8-12.8 36 0 7 1.3 13.9 3.8 20.4-4.8-.9-7.4 1.2-8.6 2.5-3.5 4-2.3 10.9-.8 15.7-2.4 2.3-5.2 6.1-5.2 11.1 0 3.1 1.1 6.1 3.3 9-8.3 9.9-14 20.2-17 31.2l-9.9-2.6-2.5-16.8c-.4-2.7-3-4.6-5.7-4.2-2.7.4-4.6 2.9-4.2 5.7l1.9 12.6-17.9-4.6c-2.7-.7-5.4.9-6.1 3.6-.7 2.7.9 5.4 3.6 6.1l38.9 10c-.5 3.4-.7 6.8-.7 10.3 0 46.7 38 84.7 84.7 84.7s84.7-38 84.7-84.7c0-3.7-.2-7.4-.7-11-.3-2.8-2.8-4.7-5.6-4.3zM171.7 78.6c-.3-1.8.1-3.7 1.2-5.2 1.1-1.5 2.7-2.5 4.5-2.8l27.4-4.4c1.8-.3 3.7.1 5.2 1.2 1.5 1.1 2.5 2.7 2.8 4.5l3.4 20.8c-.9.3-1.7.9-2.3 1.6l-38.8 6.3-3.4-22zM197 264.1l-34.9-3.8 13.2-37.4c8.4 1.3 17.9 2 27.5 2h2l-7.8 39.2zm-43.9-70.8c2.1-1.3 3-3.9 2.1-6.2-1.1-2.6-1.9-6-2-7.9 1.9.8 4.5 3.1 7.2 5.5 6.7 6 15.8 14.2 31.2 17.1 17.3 3.3 38.3-.9 63.9-12.8.2.2.5.4.7.7.7 1 2 4.2 0 12.3-.2 1-1.5 3.5-8.1 6.2-17.1 7.2-53 8.5-75.3 4.1-6-1.2-11-2.8-14.4-4.8-2.4-1.4-4.2-2.7-5.5-3.9 0 0-.1 0-.1-.1-2.8-2.6-3.3-4.4-3.3-5.2-.1-2.1 2.7-4.4 3.6-5z" fill="rgba(0, 0, 0, 1)" stroke="none"/>
  <path d="M204.3 137.1c9.7 0 9.7-15 0-15-9.6 0-9.6 15 0 15z" fill="rgba(0, 0, 0, 1)" stroke="none"/>
  <path d="M229.8 122.1c-9.7 0-9.7 15 0 15s9.7-15 0-15z" fill="rgba(0, 0, 0, 1)" stroke="none"/>
  <path d="M316.8 217.9c-1.2-2.5-4.2-3.5-6.7-2.3l-48 23.5c-2.5 1.2-3.5 4.2-2.3 6.7.9 1.8 2.6 2.8 4.5 2.8.7 0 1.5-.2 2.2-.5l48-23.5c2.5-1.2 3.5-4.2 2.3-6.7z" fill="rgba(0, 0, 0, 1)" stroke="none"/>
  <path d="M217.3 157.3c0 2.8 2.2 5 5 5h58.5c2.8 0 5-2.2 5-5s-2.2-5-5-5h-58.5c-2.8 0-5 2.2-5 5z" fill="rgba(0, 0, 0, 1)" stroke="none"/>
</svg>
</g></svg></g></g>
<!-- /image 38407 -->
</defs><rect x="0" y="0" width="250" height="250" fill="rgba(255, 255, 255, 0)"></rect><use xlink:href="#transformed-99071" transform="translate(-250, -250)"></use><use xlink:href="#transformed-99071" transform="translate(0, -250)"></use><use xlink:href="#transformed-99071" transform="translate(250, -250)"></use><use xlink:href="#transformed-99071" transform="translate(-250, 0)"></use><use xlink:href="#transformed-99071" transform="translate(0, 0)"></use><use xlink:href="#transformed-99071" transform="translate(250, 0)"></use><use xlink:href="#transformed-99071" transform="translate(-250, 250)"></use><use xlink:href="#transformed-99071" transform="translate(0, 250)"></use><use xlink:href="#transformed-99071" transform="translate(250, 250)"></use><use xlink:href="#transformed-38407" transform="translate(-250, -250)"></use><use xlink:href="#transformed-38407" transform="translate(0, -250)"></use><use xlink:href="#transformed-38407" transform="translate(250, -250)"></use><use xlink:href="#transformed-38407" transform="translate(-250, 0)"></use><use xlink:href="#transformed-38407" transform="translate(0, 0)"></use><use xlink:href="#transformed-38407" transform="translate(250, 0)"></use><use xlink:href="#transformed-38407" transform="translate(-250, 250)"></use><use xlink:href="#transformed-38407" transform="translate(0, 250)"></use><use xlink:href="#transformed-38407" transform="translate(250, 250)"></use></svg>